<?xml version="1.0" encoding="UTF-8"?>
<!DOCTYPE svg PUBLIC "-//W3C//DTD SVG 1.1//EN" "http://www.w3.org/Graphics/SVG/1.1/DTD/svg11.dtd">
<!-- Creator: CorelDRAW X6 -->
<svg xmlns="http://www.w3.org/2000/svg" xml:space="preserve" width="2.30555in" height="2.56944in" version="1.1" style="shape-rendering:geometricPrecision; text-rendering:geometricPrecision; image-rendering:optimizeQuality; fill-rule:evenodd; clip-rule:evenodd"
viewBox="0 0 2306 2569"
 xmlns:xlink="http://www.w3.org/1999/xlink">
 <defs>
  <style type="text/css">
   <![CDATA[
    .fil0 {fill:#FEFEFE;fill-rule:nonzero}
   ]]>
  </style>
 </defs>
 <g id="Layer_x0020_1">
  <metadata id="CorelCorpID_0Corel-Layer"/>
  <path class="fil0" d="M1201 1501c-173,-3 -360,-109 -423,-300 -47,-166 -21,-348 120,-441 228,-152 567,-22 632,243 59,245 -73,465 -329,498zm-343 -1043c-175,93 -333,239 -370,436 -59,315 84,661 374,814 210,111 485,106 684,-27 240,-161 367,-485 259,-759 -90,-228 -278,-416 -518,-494 -101,-33 -308,-35 -429,30z"/>
  <path class="fil0" d="M2264 2175c11,-1 31,-4 36,-27 13,-56 20,-156 2,-210 -6,-18 -20,-22 -44,-27 -55,-13 -263,-7 -277,-10 -17,-3 -17,-15 -4,-30 22,-25 61,-64 77,-81 385,-426 258,-1081 -133,-1450 -44,-41 -12,-46 17,-46 89,0 164,5 260,12 34,2 68,-20 78,-73 7,-39 10,-102 10,-136 0,-52 -22,-65 -85,-73 -180,-22 -345,-19 -522,-17 -107,1 -215,3 -322,-4 -59,-3 -152,-16 -175,53 -12,38 -10,96 -6,140 3,44 2,73 36,87 46,19 100,29 184,56 171,54 339,187 445,333 253,348 139,705 51,875 -122,236 -338,341 -618,341 -51,0 -58,23 -60,55 -5,60 -12,146 3,196 8,28 30,40 72,40 145,0 927,-2 975,-5z"/>
  <path class="fil0" d="M385 773c77,-249 331,-392 597,-452 75,-17 101,-38 107,-73 8,-45 17,-92 11,-141 -7,-53 -15,-82 -79,-83 -93,-2 -181,17 -298,54 -108,33 -274,140 -382,260 -22,24 -40,41 -39,-19 1,-87 22,-145 22,-233 0,-58 -35,-69 -66,-78 -26,-7 -52,-11 -78,-12l-12 0c-21,0 -42,3 -63,7 -53,10 -83,41 -83,90 0,131 -18,243 -22,371 8,561 58,1100 66,1661 3,52 15,60 40,69 70,26 161,18 198,13 27,-4 43,-32 45,-47 17,-110 20,-197 20,-311 0,-18 7,-19 14,-11 150,164 274,248 460,292 41,11 163,35 179,37 33,5 65,2 74,-27 27,-87 26,-175 18,-221 -3,-18 -11,-26 -42,-28 -67,-6 -204,-8 -354,-101 -397,-246 -414,-750 -333,-1015z"/>
  <polygon class="fil0" points="4,2567 4,2383 40,2383 40,2473 119,2383 156,2383 86,2465 161,2567 123,2567 64,2485 40,2512 40,2567 "/>
  <path class="fil0" d="M228 2474l45 0c3,0 6,-1 9,-2 3,-2 5,-4 7,-6 2,-3 4,-6 5,-9 1,-4 2,-8 2,-12 0,-4 -1,-8 -2,-12 -1,-4 -3,-7 -6,-9 -2,-3 -5,-5 -8,-6 -3,-1 -6,-2 -9,-2l-43 0 0 60zm-36 93l0 -184 81 0c8,0 16,2 23,5 7,4 13,8 19,14 5,6 9,12 12,20 3,7 4,15 4,22 0,12 -3,23 -9,33 -6,10 -14,17 -24,21l43 69 -40 0 -39 -62 -35 0 0 62 -36 0z"/>
  <polygon class="fil0" points="381,2567 416,2567 416,2383 381,2383 "/>
  <polygon class="fil0" points="487,2383 537,2522 587,2383 624,2383 552,2567 522,2567 450,2383 "/>
  <path class="fil0" d="M675 2475c0,8 1,16 4,23 2,7 6,14 10,20 4,6 10,10 16,14 6,3 14,5 22,5 8,0 16,-2 22,-5 6,-4 12,-8 16,-14 4,-6 8,-12 10,-20 2,-7 3,-15 3,-22 0,-8 -1,-16 -4,-23 -2,-7 -6,-14 -10,-20 -4,-6 -10,-10 -16,-14 -6,-3 -13,-5 -21,-5 -8,0 -16,2 -22,5 -6,4 -12,8 -16,14 -4,6 -8,12 -10,20 -2,7 -3,15 -3,22zm51 93c-13,0 -25,-3 -36,-8 -11,-5 -20,-12 -28,-21 -8,-9 -14,-19 -18,-30 -4,-11 -6,-23 -6,-35 0,-12 2,-24 7,-35 4,-11 11,-21 18,-30 8,-9 17,-16 28,-21 11,-5 22,-8 35,-8 13,0 25,3 36,8 11,5 20,13 28,21 8,9 13,19 18,30 4,11 6,23 6,34 0,12 -2,24 -7,35 -4,11 -11,21 -18,30 -8,9 -17,15 -28,20 -11,5 -22,8 -35,8z"/>
  <path class="fil0" d="M965 2431c-1,-1 -3,-3 -7,-5 -3,-2 -7,-4 -12,-6 -5,-2 -10,-4 -15,-5 -5,-1 -11,-2 -16,-2 -10,0 -17,2 -22,5 -5,4 -7,9 -7,15 0,4 1,7 3,9 2,3 4,5 8,7 3,2 8,4 13,5 5,2 11,3 18,5 9,2 17,5 25,8 7,3 14,6 19,10 5,4 9,9 12,15 3,6 4,13 4,21 0,10 -2,18 -6,25 -4,7 -9,13 -15,17 -6,4 -14,7 -22,9 -8,2 -17,3 -26,3 -14,0 -28,-2 -41,-6 -13,-4 -26,-10 -36,-18l16 -31c2,2 4,4 8,6 4,3 9,5 14,8 6,3 12,5 18,6 7,2 14,3 21,3 20,0 30,-6 30,-19 0,-4 -1,-8 -3,-10 -2,-3 -5,-5 -10,-7 -4,-2 -9,-4 -15,-6 -6,-2 -12,-4 -20,-5 -9,-2 -16,-5 -23,-8 -6,-3 -12,-6 -16,-10 -4,-4 -8,-8 -10,-13 -2,-5 -3,-11 -3,-18 0,-9 2,-18 5,-25 3,-7 8,-13 14,-18 6,-5 13,-9 21,-11 8,-3 17,-4 26,-4 13,0 25,2 36,6 11,4 20,9 29,14l-16 29z"/>
  <polygon class="fil0" points="1185,2383 1185,2567 1149,2567 1149,2489 1065,2489 1065,2567 1030,2567 1030,2383 1065,2383 1065,2458 1149,2458 1149,2383 "/>
  <polygon class="fil0" points="1238,2567 1274,2567 1274,2383 1238,2383 "/>
  <polygon class="fil0" points="1456,2536 1456,2567 1328,2567 1328,2383 1453,2383 1453,2415 1363,2415 1363,2459 1441,2459 1441,2488 1363,2488 1363,2536 "/>
  <polygon class="fil0" points="1520,2383 1570,2522 1620,2383 1657,2383 1585,2567 1555,2567 1483,2383 "/>
  <polygon class="fil0" points="1668,2567 1696,2567 1696,2530 1668,2530 "/>
  <path class="fil0" d="M1728 2474c0,-11 2,-22 6,-33 4,-11 10,-21 17,-29 8,-9 17,-16 28,-21 11,-5 23,-8 37,-8 16,0 31,4 43,11 12,7 21,17 27,29l-28 19c-2,-5 -5,-10 -8,-13 -3,-4 -7,-6 -11,-8 -4,-2 -8,-4 -12,-5 -4,-1 -8,-1 -12,-1 -8,0 -16,2 -22,5 -6,4 -12,8 -16,14 -4,6 -7,12 -10,20 -2,7 -3,15 -3,22 0,8 1,16 4,23 3,8 6,14 11,20 5,6 10,10 16,14 6,3 13,5 21,5 4,0 8,-1 12,-2 4,-1 8,-3 12,-5 4,-2 7,-5 11,-9 3,-4 6,-8 8,-13l29 17c-3,7 -7,13 -12,18 -5,5 -11,10 -18,13 -7,4 -14,6 -21,8 -7,2 -15,3 -22,3 -13,0 -25,-3 -35,-8 -11,-6 -20,-13 -28,-22 -8,-9 -14,-19 -18,-30 -4,-11 -6,-23 -6,-35z"/>
  <path class="fil0" d="M1949 2475c0,8 1,16 3,23 2,7 6,14 10,20 4,6 10,10 16,14 6,3 14,5 22,5 8,0 16,-2 22,-5 6,-4 12,-8 16,-14 4,-6 8,-12 10,-20 2,-7 3,-15 3,-22 0,-8 -1,-16 -4,-23 -2,-7 -6,-14 -10,-20 -4,-6 -10,-10 -16,-14 -6,-3 -13,-5 -21,-5 -8,0 -16,2 -22,5 -6,4 -12,8 -16,14 -4,6 -8,12 -10,20 -2,7 -3,15 -3,22zm51 93c-13,0 -25,-3 -36,-8 -11,-5 -20,-12 -28,-21 -8,-9 -14,-19 -18,-30 -4,-11 -6,-23 -6,-35 0,-12 2,-24 7,-35 4,-11 11,-21 18,-30 8,-9 17,-16 28,-21 11,-5 22,-8 35,-8 13,0 25,3 36,8 11,5 20,13 28,21 8,9 14,19 18,30 4,11 6,23 6,34 0,12 -2,24 -7,35 -4,11 -11,21 -18,30 -8,9 -17,15 -28,20 -11,5 -22,8 -35,8z"/>
  <polygon class="fil0" points="2281,2567 2281,2445 2234,2536 2214,2536 2167,2445 2167,2567 2131,2567 2131,2383 2169,2383 2224,2488 2279,2383 2317,2383 2317,2567 "/>
 </g>
</svg>
